<?xml version="1.0" encoding="utf-8"?>
<svg xmlns="http://www.w3.org/2000/svg" xmlns:xlink="http://www.w3.org/1999/xlink" width="600" height="400" viewBox="0 0 2400 1600">
<defs>
  <clipPath id="clip050">
    <rect x="0" y="0" width="2400" height="1600"/>
  </clipPath>
</defs>
<path clip-path="url(#clip050)" d="
M0 1600 L2400 1600 L2400 0 L0 0  Z
  " fill="#ffffff" fill-rule="evenodd" fill-opacity="1"/>
<defs>
  <clipPath id="clip051">
    <rect x="480" y="0" width="1681" height="1600"/>
  </clipPath>
</defs>
<path clip-path="url(#clip050)" d="
M242.973 1423.18 L2352.76 1423.18 L2352.76 123.472 L242.973 123.472  Z
  " fill="#ffffff" fill-rule="evenodd" fill-opacity="1"/>
<defs>
  <clipPath id="clip052">
    <rect x="242" y="123" width="2111" height="1301"/>
  </clipPath>
</defs>
<polyline clip-path="url(#clip052)" style="stroke:#000000; stroke-linecap:butt; stroke-linejoin:round; stroke-width:2; stroke-opacity:0.1; fill:none" points="
  302.683,1423.18 302.683,123.472 
  "/>
<polyline clip-path="url(#clip052)" style="stroke:#000000; stroke-linecap:butt; stroke-linejoin:round; stroke-width:2; stroke-opacity:0.1; fill:none" points="
  871.358,1423.18 871.358,123.472 
  "/>
<polyline clip-path="url(#clip052)" style="stroke:#000000; stroke-linecap:butt; stroke-linejoin:round; stroke-width:2; stroke-opacity:0.1; fill:none" points="
  1440.03,1423.18 1440.03,123.472 
  "/>
<polyline clip-path="url(#clip052)" style="stroke:#000000; stroke-linecap:butt; stroke-linejoin:round; stroke-width:2; stroke-opacity:0.1; fill:none" points="
  2008.71,1423.18 2008.71,123.472 
  "/>
<polyline clip-path="url(#clip050)" style="stroke:#000000; stroke-linecap:butt; stroke-linejoin:round; stroke-width:4; stroke-opacity:1; fill:none" points="
  242.973,1423.18 2352.76,1423.18 
  "/>
<polyline clip-path="url(#clip050)" style="stroke:#000000; stroke-linecap:butt; stroke-linejoin:round; stroke-width:4; stroke-opacity:1; fill:none" points="
  302.683,1423.18 302.683,1404.28 
  "/>
<polyline clip-path="url(#clip050)" style="stroke:#000000; stroke-linecap:butt; stroke-linejoin:round; stroke-width:4; stroke-opacity:1; fill:none" points="
  871.358,1423.18 871.358,1404.28 
  "/>
<polyline clip-path="url(#clip050)" style="stroke:#000000; stroke-linecap:butt; stroke-linejoin:round; stroke-width:4; stroke-opacity:1; fill:none" points="
  1440.03,1423.18 1440.03,1404.28 
  "/>
<polyline clip-path="url(#clip050)" style="stroke:#000000; stroke-linecap:butt; stroke-linejoin:round; stroke-width:4; stroke-opacity:1; fill:none" points="
  2008.71,1423.18 2008.71,1404.28 
  "/>
<path clip-path="url(#clip050)" d="M280.068 1454.1 Q276.457 1454.1 274.628 1457.66 Q272.822 1461.2 272.822 1468.33 Q272.822 1475.44 274.628 1479.01 Q276.457 1482.55 280.068 1482.55 Q283.702 1482.55 285.508 1479.01 Q287.336 1475.44 287.336 1468.33 Q287.336 1461.2 285.508 1457.66 Q283.702 1454.1 280.068 1454.1 M280.068 1450.39 Q285.878 1450.39 288.934 1455 Q292.012 1459.58 292.012 1468.33 Q292.012 1477.06 288.934 1481.67 Q285.878 1486.25 280.068 1486.25 Q274.258 1486.25 271.179 1481.67 Q268.123 1477.06 268.123 1468.33 Q268.123 1459.58 271.179 1455 Q274.258 1450.39 280.068 1450.39 Z" fill="#000000" fill-rule="evenodd" fill-opacity="1" /><path clip-path="url(#clip050)" d="M300.23 1479.7 L305.114 1479.7 L305.114 1485.58 L300.23 1485.58 L300.23 1479.7 Z" fill="#000000" fill-rule="evenodd" fill-opacity="1" /><path clip-path="url(#clip050)" d="M325.299 1454.1 Q321.688 1454.1 319.859 1457.66 Q318.054 1461.2 318.054 1468.33 Q318.054 1475.44 319.859 1479.01 Q321.688 1482.55 325.299 1482.55 Q328.933 1482.55 330.739 1479.01 Q332.568 1475.44 332.568 1468.33 Q332.568 1461.2 330.739 1457.66 Q328.933 1454.1 325.299 1454.1 M325.299 1450.39 Q331.109 1450.39 334.165 1455 Q337.243 1459.58 337.243 1468.33 Q337.243 1477.06 334.165 1481.67 Q331.109 1486.25 325.299 1486.25 Q319.489 1486.25 316.41 1481.67 Q313.355 1477.06 313.355 1468.33 Q313.355 1459.58 316.41 1455 Q319.489 1450.39 325.299 1450.39 Z" fill="#000000" fill-rule="evenodd" fill-opacity="1" /><path clip-path="url(#clip050)" d="M849.356 1454.1 Q845.745 1454.1 843.916 1457.66 Q842.111 1461.2 842.111 1468.33 Q842.111 1475.44 843.916 1479.01 Q845.745 1482.55 849.356 1482.55 Q852.99 1482.55 854.796 1479.01 Q856.624 1475.44 856.624 1468.33 Q856.624 1461.2 854.796 1457.66 Q852.99 1454.1 849.356 1454.1 M849.356 1450.39 Q855.166 1450.39 858.222 1455 Q861.3 1459.58 861.3 1468.33 Q861.3 1477.06 858.222 1481.67 Q855.166 1486.25 849.356 1486.25 Q843.546 1486.25 840.467 1481.67 Q837.412 1477.06 837.412 1468.33 Q837.412 1459.58 840.467 1455 Q843.546 1450.39 849.356 1450.39 Z" fill="#000000" fill-rule="evenodd" fill-opacity="1" /><path clip-path="url(#clip050)" d="M869.518 1479.7 L874.402 1479.7 L874.402 1485.58 L869.518 1485.58 L869.518 1479.7 Z" fill="#000000" fill-rule="evenodd" fill-opacity="1" /><path clip-path="url(#clip050)" d="M885.397 1481.64 L893.036 1481.64 L893.036 1455.28 L884.726 1456.95 L884.726 1452.69 L892.99 1451.02 L897.666 1451.02 L897.666 1481.64 L905.305 1481.64 L905.305 1485.58 L885.397 1485.58 L885.397 1481.64 Z" fill="#000000" fill-rule="evenodd" fill-opacity="1" /><path clip-path="url(#clip050)" d="M1418.22 1454.1 Q1414.6 1454.1 1412.78 1457.66 Q1410.97 1461.2 1410.97 1468.33 Q1410.97 1475.44 1412.78 1479.01 Q1414.6 1482.55 1418.22 1482.55 Q1421.85 1482.55 1423.66 1479.01 Q1425.48 1475.44 1425.48 1468.33 Q1425.48 1461.2 1423.66 1457.66 Q1421.85 1454.1 1418.22 1454.1 M1418.22 1450.39 Q1424.03 1450.39 1427.08 1455 Q1430.16 1459.58 1430.16 1468.33 Q1430.16 1477.06 1427.08 1481.67 Q1424.03 1486.25 1418.22 1486.25 Q1412.41 1486.25 1409.33 1481.67 Q1406.27 1477.06 1406.27 1468.33 Q1406.27 1459.58 1409.33 1455 Q1412.41 1450.39 1418.22 1450.39 Z" fill="#000000" fill-rule="evenodd" fill-opacity="1" /><path clip-path="url(#clip050)" d="M1438.38 1479.7 L1443.26 1479.7 L1443.26 1485.58 L1438.38 1485.58 L1438.38 1479.7 Z" fill="#000000" fill-rule="evenodd" fill-opacity="1" /><path clip-path="url(#clip050)" d="M1457.47 1481.64 L1473.79 1481.64 L1473.79 1485.58 L1451.85 1485.58 L1451.85 1481.64 Q1454.51 1478.89 1459.1 1474.26 Q1463.7 1469.61 1464.88 1468.27 Q1467.13 1465.74 1468.01 1464.01 Q1468.91 1462.25 1468.91 1460.56 Q1468.91 1457.8 1466.97 1456.07 Q1465.04 1454.33 1461.94 1454.33 Q1459.74 1454.33 1457.29 1455.09 Q1454.86 1455.86 1452.08 1457.41 L1452.08 1452.69 Q1454.91 1451.55 1457.36 1450.97 Q1459.81 1450.39 1461.85 1450.39 Q1467.22 1450.39 1470.41 1453.08 Q1473.61 1455.77 1473.61 1460.26 Q1473.61 1462.39 1472.8 1464.31 Q1472.01 1466.2 1469.91 1468.8 Q1469.33 1469.47 1466.22 1472.69 Q1463.12 1475.88 1457.47 1481.64 Z" fill="#000000" fill-rule="evenodd" fill-opacity="1" /><path clip-path="url(#clip050)" d="M1986.42 1454.1 Q1982.81 1454.1 1980.98 1457.66 Q1979.17 1461.2 1979.17 1468.33 Q1979.17 1475.44 1980.98 1479.01 Q1982.81 1482.55 1986.42 1482.55 Q1990.05 1482.55 1991.86 1479.01 Q1993.68 1475.44 1993.68 1468.33 Q1993.68 1461.2 1991.86 1457.66 Q1990.05 1454.1 1986.42 1454.1 M1986.42 1450.39 Q1992.23 1450.39 1995.28 1455 Q1998.36 1459.58 1998.36 1468.33 Q1998.36 1477.06 1995.28 1481.67 Q1992.23 1486.25 1986.42 1486.25 Q1980.61 1486.25 1977.53 1481.67 Q1974.47 1477.06 1974.47 1468.33 Q1974.47 1459.58 1977.53 1455 Q1980.61 1450.39 1986.42 1450.39 Z" fill="#000000" fill-rule="evenodd" fill-opacity="1" /><path clip-path="url(#clip050)" d="M2006.58 1479.7 L2011.46 1479.7 L2011.46 1485.58 L2006.58 1485.58 L2006.58 1479.7 Z" fill="#000000" fill-rule="evenodd" fill-opacity="1" /><path clip-path="url(#clip050)" d="M2035.81 1466.95 Q2039.17 1467.66 2041.05 1469.93 Q2042.94 1472.2 2042.94 1475.53 Q2042.94 1480.65 2039.43 1483.45 Q2035.91 1486.25 2029.43 1486.25 Q2027.25 1486.25 2024.93 1485.81 Q2022.64 1485.39 2020.19 1484.54 L2020.19 1480.02 Q2022.13 1481.16 2024.45 1481.74 Q2026.76 1482.32 2029.29 1482.32 Q2033.68 1482.32 2035.98 1480.58 Q2038.29 1478.84 2038.29 1475.53 Q2038.29 1472.48 2036.14 1470.77 Q2034.01 1469.03 2030.19 1469.03 L2026.16 1469.03 L2026.16 1465.19 L2030.37 1465.19 Q2033.82 1465.19 2035.65 1463.82 Q2037.48 1462.43 2037.48 1459.84 Q2037.48 1457.18 2035.58 1455.77 Q2033.71 1454.33 2030.19 1454.33 Q2028.27 1454.33 2026.07 1454.75 Q2023.87 1455.16 2021.23 1456.04 L2021.23 1451.88 Q2023.89 1451.14 2026.21 1450.77 Q2028.55 1450.39 2030.61 1450.39 Q2035.93 1450.39 2039.03 1452.83 Q2042.13 1455.23 2042.13 1459.35 Q2042.13 1462.22 2040.49 1464.21 Q2038.85 1466.18 2035.81 1466.95 Z" fill="#000000" fill-rule="evenodd" fill-opacity="1" /><path clip-path="url(#clip050)" d="M1311.46 1561.83 Q1311.46 1562.44 1310.75 1562.51 L1309.3 1562.51 Q1307.82 1562.51 1307.18 1562.28 Q1306.53 1562.06 1305.79 1561.03 Q1305.34 1560.38 1304.22 1557.39 Q1303.12 1554.36 1301.51 1549.79 Q1299.93 1545.21 1298.87 1542.51 L1282.99 1561.25 Q1281.9 1562.64 1280.8 1562.64 Q1280 1562.64 1279.42 1562.09 Q1278.84 1561.54 1278.84 1560.7 Q1278.84 1560.09 1279.06 1559.74 Q1279.32 1559.38 1280 1558.67 L1298.22 1540.61 L1291.82 1522.67 Q1290.59 1519.35 1289.88 1518.51 Q1289.21 1517.68 1287.53 1517.39 Q1286.92 1517.23 1286.92 1516.71 Q1286.92 1516 1288.11 1516 Q1294.49 1516 1296.16 1520.67 L1309.63 1558.19 Q1310.37 1560.35 1311.14 1561.25 Q1311.46 1561.67 1311.46 1561.83 Z" fill="#000000" fill-rule="evenodd" fill-opacity="1" /><polyline clip-path="url(#clip052)" style="stroke:#000000; stroke-linecap:butt; stroke-linejoin:round; stroke-width:2; stroke-opacity:0.1; fill:none" points="
  242.973,1330.72 2352.76,1330.72 
  "/>
<polyline clip-path="url(#clip052)" style="stroke:#000000; stroke-linecap:butt; stroke-linejoin:round; stroke-width:2; stroke-opacity:0.1; fill:none" points="
  242.973,1112.77 2352.76,1112.77 
  "/>
<polyline clip-path="url(#clip052)" style="stroke:#000000; stroke-linecap:butt; stroke-linejoin:round; stroke-width:2; stroke-opacity:0.1; fill:none" points="
  242.973,894.811 2352.76,894.811 
  "/>
<polyline clip-path="url(#clip052)" style="stroke:#000000; stroke-linecap:butt; stroke-linejoin:round; stroke-width:2; stroke-opacity:0.1; fill:none" points="
  242.973,676.855 2352.76,676.855 
  "/>
<polyline clip-path="url(#clip052)" style="stroke:#000000; stroke-linecap:butt; stroke-linejoin:round; stroke-width:2; stroke-opacity:0.1; fill:none" points="
  242.973,458.899 2352.76,458.899 
  "/>
<polyline clip-path="url(#clip052)" style="stroke:#000000; stroke-linecap:butt; stroke-linejoin:round; stroke-width:2; stroke-opacity:0.1; fill:none" points="
  242.973,240.942 2352.76,240.942 
  "/>
<polyline clip-path="url(#clip050)" style="stroke:#000000; stroke-linecap:butt; stroke-linejoin:round; stroke-width:4; stroke-opacity:1; fill:none" points="
  242.973,1423.18 242.973,123.472 
  "/>
<polyline clip-path="url(#clip050)" style="stroke:#000000; stroke-linecap:butt; stroke-linejoin:round; stroke-width:4; stroke-opacity:1; fill:none" points="
  242.973,1330.72 261.87,1330.72 
  "/>
<polyline clip-path="url(#clip050)" style="stroke:#000000; stroke-linecap:butt; stroke-linejoin:round; stroke-width:4; stroke-opacity:1; fill:none" points="
  242.973,1112.77 261.87,1112.77 
  "/>
<polyline clip-path="url(#clip050)" style="stroke:#000000; stroke-linecap:butt; stroke-linejoin:round; stroke-width:4; stroke-opacity:1; fill:none" points="
  242.973,894.811 261.87,894.811 
  "/>
<polyline clip-path="url(#clip050)" style="stroke:#000000; stroke-linecap:butt; stroke-linejoin:round; stroke-width:4; stroke-opacity:1; fill:none" points="
  242.973,676.855 261.87,676.855 
  "/>
<polyline clip-path="url(#clip050)" style="stroke:#000000; stroke-linecap:butt; stroke-linejoin:round; stroke-width:4; stroke-opacity:1; fill:none" points="
  242.973,458.899 261.87,458.899 
  "/>
<polyline clip-path="url(#clip050)" style="stroke:#000000; stroke-linecap:butt; stroke-linejoin:round; stroke-width:4; stroke-opacity:1; fill:none" points="
  242.973,240.942 261.87,240.942 
  "/>
<path clip-path="url(#clip050)" d="M115.098 1331.17 L144.774 1331.17 L144.774 1335.11 L115.098 1335.11 L115.098 1331.17 Z" fill="#000000" fill-rule="evenodd" fill-opacity="1" /><path clip-path="url(#clip050)" d="M158.894 1344.07 L175.213 1344.07 L175.213 1348 L153.269 1348 L153.269 1344.07 Q155.931 1341.31 160.514 1336.68 Q165.121 1332.03 166.302 1330.69 Q168.547 1328.17 169.426 1326.43 Q170.329 1324.67 170.329 1322.98 Q170.329 1320.23 168.385 1318.49 Q166.464 1316.75 163.362 1316.75 Q161.163 1316.75 158.709 1317.52 Q156.278 1318.28 153.501 1319.83 L153.501 1315.11 Q156.325 1313.98 158.778 1313.4 Q161.232 1312.82 163.269 1312.82 Q168.639 1312.82 171.834 1315.5 Q175.028 1318.19 175.028 1322.68 Q175.028 1324.81 174.218 1326.73 Q173.431 1328.63 171.325 1331.22 Q170.746 1331.89 167.644 1335.11 Q164.542 1338.3 158.894 1344.07 Z" fill="#000000" fill-rule="evenodd" fill-opacity="1" /><path clip-path="url(#clip050)" d="M195.028 1316.52 Q191.417 1316.52 189.588 1320.09 Q187.783 1323.63 187.783 1330.76 Q187.783 1337.86 189.588 1341.43 Q191.417 1344.97 195.028 1344.97 Q198.662 1344.97 200.468 1341.43 Q202.297 1337.86 202.297 1330.76 Q202.297 1323.63 200.468 1320.09 Q198.662 1316.52 195.028 1316.52 M195.028 1312.82 Q200.838 1312.82 203.894 1317.42 Q206.973 1322.01 206.973 1330.76 Q206.973 1339.48 203.894 1344.09 Q200.838 1348.67 195.028 1348.67 Q189.218 1348.67 186.139 1344.09 Q183.084 1339.48 183.084 1330.76 Q183.084 1322.01 186.139 1317.42 Q189.218 1312.82 195.028 1312.82 Z" fill="#000000" fill-rule="evenodd" fill-opacity="1" /><path clip-path="url(#clip050)" d="M115.098 1113.22 L144.774 1113.22 L144.774 1117.15 L115.098 1117.15 L115.098 1113.22 Z" fill="#000000" fill-rule="evenodd" fill-opacity="1" /><path clip-path="url(#clip050)" d="M155.677 1126.11 L163.315 1126.11 L163.315 1099.75 L155.005 1101.41 L155.005 1097.15 L163.269 1095.49 L167.945 1095.49 L167.945 1126.11 L175.584 1126.11 L175.584 1130.05 L155.677 1130.05 L155.677 1126.11 Z" fill="#000000" fill-rule="evenodd" fill-opacity="1" /><path clip-path="url(#clip050)" d="M195.028 1098.57 Q191.417 1098.57 189.588 1102.13 Q187.783 1105.67 187.783 1112.8 Q187.783 1119.91 189.588 1123.47 Q191.417 1127.01 195.028 1127.01 Q198.662 1127.01 200.468 1123.47 Q202.297 1119.91 202.297 1112.8 Q202.297 1105.67 200.468 1102.13 Q198.662 1098.57 195.028 1098.57 M195.028 1094.86 Q200.838 1094.86 203.894 1099.47 Q206.973 1104.05 206.973 1112.8 Q206.973 1121.53 203.894 1126.13 Q200.838 1130.72 195.028 1130.72 Q189.218 1130.72 186.139 1126.13 Q183.084 1121.53 183.084 1112.8 Q183.084 1104.05 186.139 1099.47 Q189.218 1094.86 195.028 1094.86 Z" fill="#000000" fill-rule="evenodd" fill-opacity="1" /><path clip-path="url(#clip050)" d="M195.028 880.609 Q191.417 880.609 189.588 884.174 Q187.783 887.716 187.783 894.845 Q187.783 901.952 189.588 905.517 Q191.417 909.058 195.028 909.058 Q198.662 909.058 200.468 905.517 Q202.297 901.952 202.297 894.845 Q202.297 887.716 200.468 884.174 Q198.662 880.609 195.028 880.609 M195.028 876.906 Q200.838 876.906 203.894 881.512 Q206.973 886.096 206.973 894.845 Q206.973 903.572 203.894 908.179 Q200.838 912.762 195.028 912.762 Q189.218 912.762 186.139 908.179 Q183.084 903.572 183.084 894.845 Q183.084 886.096 186.139 881.512 Q189.218 876.906 195.028 876.906 Z" fill="#000000" fill-rule="evenodd" fill-opacity="1" /><path clip-path="url(#clip050)" d="M155.677 690.199 L163.315 690.199 L163.315 663.834 L155.005 665.501 L155.005 661.241 L163.269 659.575 L167.945 659.575 L167.945 690.199 L175.584 690.199 L175.584 694.135 L155.677 694.135 L155.677 690.199 Z" fill="#000000" fill-rule="evenodd" fill-opacity="1" /><path clip-path="url(#clip050)" d="M195.028 662.653 Q191.417 662.653 189.588 666.218 Q187.783 669.76 187.783 676.889 Q187.783 683.996 189.588 687.561 Q191.417 691.102 195.028 691.102 Q198.662 691.102 200.468 687.561 Q202.297 683.996 202.297 676.889 Q202.297 669.76 200.468 666.218 Q198.662 662.653 195.028 662.653 M195.028 658.95 Q200.838 658.95 203.894 663.556 Q206.973 668.139 206.973 676.889 Q206.973 685.616 203.894 690.223 Q200.838 694.806 195.028 694.806 Q189.218 694.806 186.139 690.223 Q183.084 685.616 183.084 676.889 Q183.084 668.139 186.139 663.556 Q189.218 658.95 195.028 658.95 Z" fill="#000000" fill-rule="evenodd" fill-opacity="1" /><path clip-path="url(#clip050)" d="M158.894 472.243 L175.213 472.243 L175.213 476.179 L153.269 476.179 L153.269 472.243 Q155.931 469.489 160.514 464.859 Q165.121 460.206 166.302 458.864 Q168.547 456.341 169.426 454.605 Q170.329 452.845 170.329 451.156 Q170.329 448.401 168.385 446.665 Q166.464 444.929 163.362 444.929 Q161.163 444.929 158.709 445.693 Q156.278 446.456 153.501 448.007 L153.501 443.285 Q156.325 442.151 158.778 441.572 Q161.232 440.994 163.269 440.994 Q168.639 440.994 171.834 443.679 Q175.028 446.364 175.028 450.855 Q175.028 452.984 174.218 454.906 Q173.431 456.804 171.325 459.396 Q170.746 460.068 167.644 463.285 Q164.542 466.48 158.894 472.243 Z" fill="#000000" fill-rule="evenodd" fill-opacity="1" /><path clip-path="url(#clip050)" d="M195.028 444.697 Q191.417 444.697 189.588 448.262 Q187.783 451.804 187.783 458.933 Q187.783 466.04 189.588 469.605 Q191.417 473.146 195.028 473.146 Q198.662 473.146 200.468 469.605 Q202.297 466.04 202.297 458.933 Q202.297 451.804 200.468 448.262 Q198.662 444.697 195.028 444.697 M195.028 440.994 Q200.838 440.994 203.894 445.6 Q206.973 450.183 206.973 458.933 Q206.973 467.66 203.894 472.267 Q200.838 476.85 195.028 476.85 Q189.218 476.85 186.139 472.267 Q183.084 467.66 183.084 458.933 Q183.084 450.183 186.139 445.6 Q189.218 440.994 195.028 440.994 Z" fill="#000000" fill-rule="evenodd" fill-opacity="1" /><path clip-path="url(#clip050)" d="M169.033 239.588 Q172.389 240.306 174.264 242.574 Q176.163 244.843 176.163 248.176 Q176.163 253.292 172.644 256.093 Q169.126 258.894 162.644 258.894 Q160.468 258.894 158.153 258.454 Q155.862 258.037 153.408 257.181 L153.408 252.667 Q155.352 253.801 157.667 254.38 Q159.982 254.959 162.505 254.959 Q166.903 254.959 169.195 253.222 Q171.51 251.486 171.51 248.176 Q171.51 245.121 169.357 243.408 Q167.227 241.672 163.408 241.672 L159.38 241.672 L159.38 237.829 L163.593 237.829 Q167.042 237.829 168.871 236.463 Q170.7 235.074 170.7 232.482 Q170.7 229.82 168.801 228.408 Q166.927 226.973 163.408 226.973 Q161.487 226.973 159.288 227.389 Q157.089 227.806 154.45 228.686 L154.45 224.519 Q157.112 223.778 159.427 223.408 Q161.764 223.037 163.825 223.037 Q169.149 223.037 172.251 225.468 Q175.352 227.875 175.352 231.996 Q175.352 234.866 173.709 236.857 Q172.065 238.824 169.033 239.588 Z" fill="#000000" fill-rule="evenodd" fill-opacity="1" /><path clip-path="url(#clip050)" d="M195.028 226.741 Q191.417 226.741 189.588 230.306 Q187.783 233.848 187.783 240.977 Q187.783 248.084 189.588 251.648 Q191.417 255.19 195.028 255.19 Q198.662 255.19 200.468 251.648 Q202.297 248.084 202.297 240.977 Q202.297 233.848 200.468 230.306 Q198.662 226.741 195.028 226.741 M195.028 223.037 Q200.838 223.037 203.894 227.644 Q206.973 232.227 206.973 240.977 Q206.973 249.704 203.894 254.31 Q200.838 258.894 195.028 258.894 Q189.218 258.894 186.139 254.31 Q183.084 249.704 183.084 240.977 Q183.084 232.227 186.139 227.644 Q189.218 223.037 195.028 223.037 Z" fill="#000000" fill-rule="evenodd" fill-opacity="1" /><path clip-path="url(#clip050)" d="M19.3488 760.419 L20.2731 760.983 Q18.7627 764.477 16.3505 768.828 Q18.7627 773.179 20.2731 776.674 L19.3488 777.215 Q16.0348 773.405 13.4873 768.828 Q16.0574 764.207 19.3488 760.419 Z" fill="#000000" fill-rule="evenodd" fill-opacity="1" /><path clip-path="url(#clip050)" d="M35.8214 755.198 Q36.6588 755.198 38.2691 755.552 Q42.8101 756.679 45.9341 760.898 Q46.5138 761.607 47.2545 762.863 Q48.2529 761.349 50.0886 760.029 Q53.116 758.064 57.2061 758.064 Q59.1063 758.064 61.4251 758.579 Q66.8035 760.029 70.6682 765.117 Q74.4362 770.238 74.4362 776.325 Q74.4362 779.61 72.6971 781.864 Q70.9258 784.086 67.9629 784.956 L86.0304 789.433 Q86.4812 789.529 86.4812 790.109 L86.4812 790.431 Q86.4812 791.107 85.7083 791.107 L45.1289 780.93 Q42.3914 780.254 39.8149 779.159 Q37.2385 778.064 34.9197 776.55 Q32.6008 775.004 30.8939 773.233 Q29.1548 771.462 28.1564 769.272 Q27.1258 767.082 27.1258 764.763 Q27.1258 759.9 30.443 757.13 Q32.7941 755.198 35.8214 755.198 M34.662 758.901 Q32.6652 758.901 31.2804 759.707 Q28.6395 761.349 28.6395 764.827 Q28.6395 766.921 29.6057 768.917 Q30.5397 770.882 32.15 772.46 Q33.7602 774.038 35.9502 775.391 Q38.1402 776.743 40.5235 777.742 Q42.8745 778.708 45.451 779.352 L61.4251 783.313 Q63.132 783.7 64.6457 783.7 Q68.2527 783.7 70.6037 781.703 Q72.9548 779.706 72.9548 776.26 Q72.9548 771.687 69.541 767.758 Q66.4814 764.344 61.103 762.927 Q57.7214 762.122 55.3704 762.122 Q52.7939 762.122 50.7971 763.056 Q49.1869 763.732 48.2207 765.053 Q49.0902 767.5 49.0902 769.98 Q49.0902 771.172 49.058 771.816 Q49.0258 772.428 48.897 773.33 Q48.7682 774.199 48.4139 774.618 Q48.0596 775.004 47.5121 775.004 Q47.1901 775.004 47.0613 774.94 Q46.546 774.811 46.1917 774.392 Q45.8374 773.974 45.6764 773.491 Q45.4832 773.008 45.3866 772.202 Q45.2899 771.365 45.2899 770.818 Q45.2577 770.27 45.2577 769.336 Q45.2577 767.146 46.1273 764.924 Q45.6764 764.087 44.8713 763.185 Q42.1982 760.318 37.947 759.352 Q36.3689 758.901 34.662 758.901 M47.1257 767.017 Q46.7714 768.37 46.7714 769.4 Q46.7714 773.169 47.3833 773.362 Q47.4477 773.362 47.5121 773.233 Q47.5444 773.104 47.5766 772.814 Q47.5766 772.492 47.6088 772.235 Q47.641 771.945 47.641 771.462 Q47.641 770.979 47.641 770.721 Q47.641 770.431 47.641 769.916 Q47.641 768.628 47.1257 767.017 Z" fill="#000000" fill-rule="evenodd" fill-opacity="1" /><path clip-path="url(#clip050)" d="M950.641 14.0809 L950.641 22.0612 Q945.982 19.8332 941.851 18.7395 Q937.719 17.6457 933.87 17.6457 Q927.186 17.6457 923.54 20.2383 Q919.935 22.8309 919.935 27.611 Q919.935 31.6214 922.325 33.6873 Q924.756 35.7128 931.48 36.9686 L936.422 37.9813 Q945.577 39.7232 949.912 44.1387 Q954.287 48.5136 954.287 55.8863 Q954.287 64.6767 948.372 69.2137 Q942.499 73.7508 931.116 73.7508 Q926.822 73.7508 921.961 72.7785 Q917.14 71.8063 911.955 69.9024 L911.955 61.4765 Q916.937 64.2716 921.718 65.6895 Q926.498 67.1073 931.116 67.1073 Q938.124 67.1073 941.932 64.3527 Q945.739 61.598 945.739 56.4939 Q945.739 52.0379 942.985 49.5264 Q940.271 47.0148 934.032 45.759 L929.05 44.7868 Q919.895 42.9639 915.803 39.075 Q911.712 35.1862 911.712 28.2591 Q911.712 20.2383 917.343 15.6203 Q923.014 11.0023 932.939 11.0023 Q937.192 11.0023 941.607 11.7719 Q946.023 12.5416 950.641 14.0809 Z" fill="#000000" fill-rule="evenodd" fill-opacity="1" /><path clip-path="url(#clip050)" d="M965.953 54.671 L965.953 27.2059 L973.407 27.2059 L973.407 54.3874 Q973.407 60.8284 975.919 64.0691 Q978.43 67.2693 983.453 67.2693 Q989.489 67.2693 992.973 63.421 Q996.497 59.5726 996.497 52.9291 L996.497 27.2059 L1003.95 27.2059 L1003.95 72.576 L996.497 72.576 L996.497 65.6084 Q993.783 69.7404 990.178 71.7658 Q986.613 73.7508 981.873 73.7508 Q974.055 73.7508 970.004 68.8897 Q965.953 64.0286 965.953 54.671 M984.709 26.1121 L984.709 26.1121 Z" fill="#000000" fill-rule="evenodd" fill-opacity="1" /><path clip-path="url(#clip050)" d="M1054.63 35.9153 Q1057.42 30.8922 1061.31 28.5022 Q1065.2 26.1121 1070.47 26.1121 Q1077.56 26.1121 1081.4 31.0947 Q1085.25 36.0368 1085.25 45.1919 L1085.25 72.576 L1077.76 72.576 L1077.76 45.4349 Q1077.76 38.913 1075.45 35.7533 Q1073.14 32.5936 1068.4 32.5936 Q1062.61 32.5936 1059.25 36.4419 Q1055.88 40.2903 1055.88 46.9338 L1055.88 72.576 L1048.39 72.576 L1048.39 45.4349 Q1048.39 38.8725 1046.08 35.7533 Q1043.77 32.5936 1038.95 32.5936 Q1033.24 32.5936 1029.88 36.4824 Q1026.51 40.3308 1026.51 46.9338 L1026.51 72.576 L1019.02 72.576 L1019.02 27.2059 L1026.51 27.2059 L1026.51 34.2544 Q1029.07 30.082 1032.63 28.0971 Q1036.2 26.1121 1041.1 26.1121 Q1046.04 26.1121 1049.48 28.6237 Q1052.97 31.1352 1054.63 35.9153 Z" fill="#000000" fill-rule="evenodd" fill-opacity="1" /><path clip-path="url(#clip050)" d="M1096.35 46.5287 L1118.19 46.5287 L1118.19 53.1722 L1096.35 53.1722 L1096.35 46.5287 Z" fill="#000000" fill-rule="evenodd" fill-opacity="1" /><path clip-path="url(#clip050)" d="M1137.43 14.324 L1137.43 27.2059 L1152.78 27.2059 L1152.78 32.9987 L1137.43 32.9987 L1137.43 57.6282 Q1137.43 63.1779 1138.93 64.7578 Q1140.47 66.3376 1145.12 66.3376 L1152.78 66.3376 L1152.78 72.576 L1145.12 72.576 Q1136.5 72.576 1133.22 69.3758 Q1129.93 66.1351 1129.93 57.6282 L1129.93 32.9987 L1124.47 32.9987 L1124.47 27.2059 L1129.93 27.2059 L1129.93 14.324 L1137.43 14.324 Z" fill="#000000" fill-rule="evenodd" fill-opacity="1" /><path clip-path="url(#clip050)" d="M1180.17 32.4315 Q1174.17 32.4315 1170.69 37.1306 Q1167.2 41.7891 1167.2 49.9314 Q1167.2 58.0738 1170.65 62.7728 Q1174.13 67.4314 1180.17 67.4314 Q1186.12 67.4314 1189.6 62.7323 Q1193.09 58.0333 1193.09 49.9314 Q1193.09 41.8701 1189.6 37.1711 Q1186.12 32.4315 1180.17 32.4315 M1180.17 26.1121 Q1189.89 26.1121 1195.44 32.4315 Q1200.99 38.7509 1200.99 49.9314 Q1200.99 61.0714 1195.44 67.4314 Q1189.89 73.7508 1180.17 73.7508 Q1170.4 73.7508 1164.85 67.4314 Q1159.34 61.0714 1159.34 49.9314 Q1159.34 38.7509 1164.85 32.4315 Q1170.4 26.1121 1180.17 26.1121 Z" fill="#000000" fill-rule="evenodd" fill-opacity="1" /><path clip-path="url(#clip050)" d="M1211.11 46.5287 L1232.95 46.5287 L1232.95 53.1722 L1211.11 53.1722 L1211.11 46.5287 Z" fill="#000000" fill-rule="evenodd" fill-opacity="1" /><path clip-path="url(#clip050)" d="M1241.66 12.096 L1289.18 12.096 L1289.18 18.3344 L1250.93 65.6895 L1290.11 65.6895 L1290.11 72.576 L1240.73 72.576 L1240.73 66.3376 L1278.97 18.9825 L1241.66 18.9825 L1241.66 12.096 Z" fill="#000000" fill-rule="evenodd" fill-opacity="1" /><path clip-path="url(#clip050)" d="M1340.46 48.0275 L1340.46 51.6733 L1306.19 51.6733 Q1306.67 59.3701 1310.81 63.421 Q1314.98 67.4314 1322.39 67.4314 Q1326.69 67.4314 1330.7 66.3781 Q1334.75 65.3249 1338.72 63.2184 L1338.72 70.267 Q1334.71 71.9684 1330.49 72.8596 Q1326.28 73.7508 1321.95 73.7508 Q1311.09 73.7508 1304.73 67.4314 Q1298.41 61.1119 1298.41 50.3365 Q1298.41 39.1965 1304.41 32.6746 Q1310.44 26.1121 1320.65 26.1121 Q1329.81 26.1121 1335.11 32.0264 Q1340.46 37.9003 1340.46 48.0275 M1333.01 45.84 Q1332.92 39.7232 1329.56 36.0774 Q1326.24 32.4315 1320.73 32.4315 Q1314.49 32.4315 1310.73 35.9558 Q1307 39.4801 1306.43 45.8805 L1333.01 45.84 Z" fill="#000000" fill-rule="evenodd" fill-opacity="1" /><path clip-path="url(#clip050)" d="M1378.98 34.1734 Q1377.73 33.4443 1376.23 33.1202 Q1374.77 32.7556 1372.99 32.7556 Q1366.67 32.7556 1363.27 36.8875 Q1359.9 40.9789 1359.9 48.6757 L1359.9 72.576 L1352.41 72.576 L1352.41 27.2059 L1359.9 27.2059 L1359.9 34.2544 Q1362.25 30.1225 1366.02 28.1376 Q1369.79 26.1121 1375.18 26.1121 Q1375.95 26.1121 1376.88 26.2337 Q1377.81 26.3147 1378.94 26.5172 L1378.98 34.1734 Z" fill="#000000" fill-rule="evenodd" fill-opacity="1" /><path clip-path="url(#clip050)" d="M1402.56 32.4315 Q1396.56 32.4315 1393.08 37.1306 Q1389.6 41.7891 1389.6 49.9314 Q1389.6 58.0738 1393.04 62.7728 Q1396.52 67.4314 1402.56 67.4314 Q1408.51 67.4314 1412 62.7323 Q1415.48 58.0333 1415.48 49.9314 Q1415.48 41.8701 1412 37.1711 Q1408.51 32.4315 1402.56 32.4315 M1402.56 26.1121 Q1412.28 26.1121 1417.83 32.4315 Q1423.38 38.7509 1423.38 49.9314 Q1423.38 61.0714 1417.83 67.4314 Q1412.28 73.7508 1402.56 73.7508 Q1392.8 73.7508 1387.25 67.4314 Q1381.74 61.0714 1381.74 49.9314 Q1381.74 38.7509 1387.25 32.4315 Q1392.8 26.1121 1402.56 26.1121 Z" fill="#000000" fill-rule="evenodd" fill-opacity="1" /><path clip-path="url(#clip050)" d="M1462.43 12.096 L1470.62 12.096 L1470.62 65.6895 L1500.07 65.6895 L1500.07 72.576 L1462.43 72.576 L1462.43 12.096 Z" fill="#000000" fill-rule="evenodd" fill-opacity="1" /><path clip-path="url(#clip050)" d="M1528.95 49.7694 Q1519.91 49.7694 1516.43 51.8354 Q1512.95 53.9013 1512.95 58.8839 Q1512.95 62.8538 1515.54 65.2034 Q1518.17 67.5124 1522.67 67.5124 Q1528.87 67.5124 1532.59 63.1374 Q1536.36 58.7219 1536.36 51.4303 L1536.36 49.7694 L1528.95 49.7694 M1543.81 46.6907 L1543.81 72.576 L1536.36 72.576 L1536.36 65.6895 Q1533.81 69.8214 1530 71.8063 Q1526.19 73.7508 1520.68 73.7508 Q1513.72 73.7508 1509.58 69.8619 Q1505.49 65.9325 1505.49 59.3701 Q1505.49 51.7138 1510.6 47.825 Q1515.74 43.9361 1525.91 43.9361 L1536.36 43.9361 L1536.36 43.2069 Q1536.36 38.0623 1532.96 35.2672 Q1529.6 32.4315 1523.48 32.4315 Q1519.59 32.4315 1515.9 33.3632 Q1512.22 34.295 1508.82 36.1584 L1508.82 29.2718 Q1512.91 27.692 1516.75 26.9223 Q1520.6 26.1121 1524.25 26.1121 Q1534.09 26.1121 1538.95 31.2163 Q1543.81 36.3204 1543.81 46.6907 Z" fill="#000000" fill-rule="evenodd" fill-opacity="1" /><path clip-path="url(#clip050)" d="M1588.09 28.5427 L1588.09 35.5912 Q1584.93 33.9709 1581.53 33.1607 Q1578.13 32.3505 1574.48 32.3505 Q1568.93 32.3505 1566.14 34.0519 Q1563.38 35.7533 1563.38 39.156 Q1563.38 41.7486 1565.37 43.2475 Q1567.35 44.7058 1573.35 46.0426 L1575.9 46.6097 Q1583.84 48.3111 1587.16 51.4303 Q1590.52 54.509 1590.52 60.0587 Q1590.52 66.3781 1585.5 70.0644 Q1580.52 73.7508 1571.77 73.7508 Q1568.12 73.7508 1564.15 73.0216 Q1560.22 72.3329 1555.85 70.9151 L1555.85 63.2184 Q1559.98 65.3654 1563.99 66.4591 Q1568 67.5124 1571.93 67.5124 Q1577.19 67.5124 1580.03 65.73 Q1582.87 63.9071 1582.87 60.6258 Q1582.87 57.5877 1580.8 55.9673 Q1578.77 54.3469 1571.85 52.8481 L1569.25 52.2405 Q1562.33 50.7821 1559.25 47.7845 Q1556.17 44.7463 1556.17 39.4801 Q1556.17 33.0797 1560.71 29.5959 Q1565.24 26.1121 1573.59 26.1121 Q1577.72 26.1121 1581.37 26.7198 Q1585.01 27.3274 1588.09 28.5427 Z" fill="#000000" fill-rule="evenodd" fill-opacity="1" /><path clip-path="url(#clip050)" d="M1631.31 28.5427 L1631.31 35.5912 Q1628.15 33.9709 1624.75 33.1607 Q1621.35 32.3505 1617.7 32.3505 Q1612.15 32.3505 1609.36 34.0519 Q1606.6 35.7533 1606.6 39.156 Q1606.6 41.7486 1608.59 43.2475 Q1610.57 44.7058 1616.57 46.0426 L1619.12 46.6097 Q1627.06 48.3111 1630.38 51.4303 Q1633.74 54.509 1633.74 60.0587 Q1633.74 66.3781 1628.72 70.0644 Q1623.74 73.7508 1614.99 73.7508 Q1611.34 73.7508 1607.37 73.0216 Q1603.44 72.3329 1599.07 70.9151 L1599.07 63.2184 Q1603.2 65.3654 1607.21 66.4591 Q1611.22 67.5124 1615.15 67.5124 Q1620.42 67.5124 1623.25 65.73 Q1626.09 63.9071 1626.09 60.6258 Q1626.09 57.5877 1624.02 55.9673 Q1622 54.3469 1615.07 52.8481 L1612.48 52.2405 Q1605.55 50.7821 1602.47 47.7845 Q1599.39 44.7463 1599.39 39.4801 Q1599.39 33.0797 1603.93 29.5959 Q1608.47 26.1121 1616.81 26.1121 Q1620.94 26.1121 1624.59 26.7198 Q1628.24 27.3274 1631.31 28.5427 Z" fill="#000000" fill-rule="evenodd" fill-opacity="1" /><path clip-path="url(#clip050)" d="M1663.2 32.4315 Q1657.2 32.4315 1653.72 37.1306 Q1650.23 41.7891 1650.23 49.9314 Q1650.23 58.0738 1653.68 62.7728 Q1657.16 67.4314 1663.2 67.4314 Q1669.15 67.4314 1672.63 62.7323 Q1676.12 58.0333 1676.12 49.9314 Q1676.12 41.8701 1672.63 37.1711 Q1669.15 32.4315 1663.2 32.4315 M1663.2 26.1121 Q1672.92 26.1121 1678.47 32.4315 Q1684.02 38.7509 1684.02 49.9314 Q1684.02 61.0714 1678.47 67.4314 Q1672.92 73.7508 1663.2 73.7508 Q1653.43 73.7508 1647.88 67.4314 Q1642.37 61.0714 1642.37 49.9314 Q1642.37 38.7509 1647.88 32.4315 Q1653.43 26.1121 1663.2 26.1121 Z" fill="#000000" fill-rule="evenodd" fill-opacity="1" /><polyline clip-path="url(#clip052)" style="stroke:#009af9; stroke-linecap:butt; stroke-linejoin:round; stroke-width:4; stroke-opacity:1; fill:none" points="
  302.683,702.54 359.551,705.122 416.418,715.958 473.286,734.351 530.153,760.193 587.021,789.294 643.888,817.419 700.756,844.508 757.623,873.452 814.491,894.813 
  871.358,894.812 928.226,894.811 985.093,894.811 1041.96,894.811 1098.83,894.811 1155.7,894.811 1212.56,894.811 1269.43,894.811 1326.3,894.811 1383.17,894.811 
  1440.03,894.811 1496.9,894.811 1553.77,894.81 1610.64,894.81 1667.5,894.811 1724.37,894.811 1781.24,894.811 1838.11,894.811 1894.97,894.811 1951.84,894.811 
  2008.71,894.811 2065.58,894.811 2122.44,894.811 2179.31,894.811 2236.18,894.81 2293.05,894.811 
  "/>
<polyline clip-path="url(#clip052)" style="stroke:#e26f46; stroke-linecap:butt; stroke-linejoin:round; stroke-width:4; stroke-opacity:1; fill:none" points="
  302.683,160.256 359.551,306.734 416.418,391.283 473.286,464.214 530.153,529.738 587.021,582.955 643.888,626.386 700.756,669.451 757.623,710.967 814.491,746.651 
  871.358,775.954 928.226,803.975 985.093,831.461 1041.96,857.598 1098.83,879.245 1155.7,894.812 1212.56,894.811 1269.43,894.811 1326.3,894.811 1383.17,894.811 
  1440.03,894.812 1496.9,894.81 1553.77,894.81 1610.64,894.81 1667.5,894.811 1724.37,894.811 1781.24,894.811 1838.11,894.811 1894.97,894.81 1951.84,894.811 
  2008.71,894.811 2065.58,894.811 2122.44,894.811 2179.31,894.811 2236.18,894.811 2293.05,894.81 
  "/>
<polyline clip-path="url(#clip052)" style="stroke:#3da44d; stroke-linecap:butt; stroke-linejoin:round; stroke-width:4; stroke-opacity:1; fill:none" points="
  302.683,627.259 359.551,650.049 416.418,663.672 473.286,673.167 530.153,681.811 587.021,696.461 643.888,713.653 700.756,726.933 757.623,738.909 814.491,750.567 
  871.358,761.804 928.226,771.904 985.093,781.809 1041.96,791.385 1098.83,797.743 1155.7,802.859 1212.56,809.967 1269.43,817.13 1326.3,824.125 1383.17,834.517 
  1440.03,846.249 1496.9,857.883 1553.77,869.684 1610.64,881.197 1667.5,892.959 1724.37,894.811 1781.24,894.811 1838.11,894.811 1894.97,894.81 1951.84,894.807 
  2008.71,894.81 2065.58,894.811 2122.44,894.811 2179.31,894.811 2236.18,894.81 2293.05,894.81 
  "/>
<polyline clip-path="url(#clip052)" style="stroke:#c271d2; stroke-linecap:butt; stroke-linejoin:round; stroke-width:4; stroke-opacity:1; fill:none" points="
  302.683,811.307 359.551,810.038 416.418,826.793 473.286,842.981 530.153,858.808 587.021,878.183 643.888,894.811 700.756,894.811 757.623,894.811 814.491,894.813 
  871.358,894.812 928.226,894.811 985.093,894.811 1041.96,894.811 1098.83,894.811 1155.7,894.812 1212.56,894.811 1269.43,894.811 1326.3,894.811 1383.17,894.811 
  1440.03,894.812 1496.9,894.81 1553.77,894.81 1610.64,894.811 1667.5,894.811 1724.37,894.811 1781.24,894.811 1838.11,894.811 1894.97,894.811 1951.84,894.811 
  2008.71,894.811 2065.58,894.811 2122.44,894.811 2179.31,894.811 2236.18,894.811 2293.05,894.81 
  "/>
<polyline clip-path="url(#clip052)" style="stroke:#ac8d18; stroke-linecap:butt; stroke-linejoin:round; stroke-width:4; stroke-opacity:1; fill:none" points="
  302.683,1386.4 359.551,1273.43 416.418,1195.14 473.286,1122.72 530.153,1061.62 587.021,1011.38 643.888,976.139 700.756,942.636 757.623,910.435 814.491,894.811 
  871.358,894.81 928.226,894.811 985.093,894.811 1041.96,894.811 1098.83,894.811 1155.7,894.811 1212.56,894.811 1269.43,894.811 1326.3,894.811 1383.17,894.811 
  1440.03,894.811 1496.9,894.811 1553.77,894.81 1610.64,894.811 1667.5,894.811 1724.37,894.811 1781.24,894.811 1838.11,894.811 1894.97,894.811 1951.84,894.811 
  2008.71,894.811 2065.58,894.811 2122.44,894.811 2179.31,894.811 2236.18,894.811 2293.05,894.811 
  "/>
<polyline clip-path="url(#clip052)" style="stroke:#00a9ad; stroke-linecap:butt; stroke-linejoin:round; stroke-width:4; stroke-opacity:1; fill:none" points="
  302.683,915.011 359.551,971.025 416.418,992.482 473.286,1001.56 530.153,1001 587.021,1002.69 643.888,1001.48 700.756,1000.8 757.623,994.458 814.491,986.176 
  871.358,978.135 928.226,967.279 985.093,955.17 1041.96,944.237 1098.83,932.315 1155.7,918.821 1212.56,908.402 1269.43,897.953 1326.3,894.811 1383.17,894.811 
  1440.03,894.812 1496.9,894.81 1553.77,894.811 1610.64,894.811 1667.5,894.811 1724.37,894.811 1781.24,894.811 1838.11,894.811 1894.97,894.811 1951.84,894.811 
  2008.71,894.811 2065.58,894.811 2122.44,894.811 2179.31,894.811 2236.18,894.811 2293.05,894.811 
  "/>
<polyline clip-path="url(#clip052)" style="stroke:#ed5d92; stroke-linecap:butt; stroke-linejoin:round; stroke-width:4; stroke-opacity:1; fill:none" points="
  302.683,559.042 359.551,595.395 416.418,628.739 473.286,662.392 530.153,685.805 587.021,703.412 643.888,720.607 700.756,738.941 757.623,756.276 814.491,771.846 
  871.358,785.984 928.226,798.604 985.093,810.691 1041.96,823.285 1098.83,833.237 1155.7,842.247 1212.56,852.586 1269.43,863.021 1326.3,874.991 1383.17,888.859 
  1440.03,894.811 1496.9,894.811 1553.77,894.811 1610.64,894.811 1667.5,894.811 1724.37,894.811 1781.24,894.811 1838.11,894.811 1894.97,894.811 1951.84,894.811 
  2008.71,894.811 2065.58,894.811 2122.44,894.811 2179.31,894.811 2236.18,894.81 2293.05,894.81 
  "/>
<polyline clip-path="url(#clip052)" style="stroke:#c68125; stroke-linecap:butt; stroke-linejoin:round; stroke-width:4; stroke-opacity:1; fill:none" points="
  302.683,880.587 359.551,889.668 416.418,894.809 473.286,894.811 530.153,894.811 587.021,894.811 643.888,894.811 700.756,894.811 757.623,894.811 814.491,894.813 
  871.358,894.812 928.226,894.811 985.093,894.811 1041.96,894.811 1098.83,894.811 1155.7,894.811 1212.56,894.811 1269.43,894.811 1326.3,894.811 1383.17,894.811 
  1440.03,894.812 1496.9,894.811 1553.77,894.81 1610.64,894.811 1667.5,894.811 1724.37,894.811 1781.24,894.811 1838.11,894.811 1894.97,894.811 1951.84,894.811 
  2008.71,894.811 2065.58,894.811 2122.44,894.811 2179.31,894.811 2236.18,894.81 2293.05,894.811 
  "/>
<polyline clip-path="url(#clip052)" style="stroke:#00a98d; stroke-linecap:butt; stroke-linejoin:round; stroke-width:4; stroke-opacity:1; fill:none" points="
  302.683,1004.67 359.551,947.581 416.418,911.481 473.286,894.811 530.153,894.811 587.021,894.811 643.888,894.811 700.756,894.811 757.623,894.811 814.491,894.812 
  871.358,894.811 928.226,894.811 985.093,894.811 1041.96,894.811 1098.83,894.811 1155.7,894.811 1212.56,894.811 1269.43,894.811 1326.3,894.811 1383.17,894.811 
  1440.03,894.811 1496.9,894.811 1553.77,894.81 1610.64,894.81 1667.5,894.811 1724.37,894.811 1781.24,894.811 1838.11,894.811 1894.97,894.811 1951.84,894.811 
  2008.71,894.811 2065.58,894.811 2122.44,894.811 2179.31,894.811 2236.18,894.81 2293.05,894.811 
  "/>
<polyline clip-path="url(#clip052)" style="stroke:#8e971d; stroke-linecap:butt; stroke-linejoin:round; stroke-width:4; stroke-opacity:1; fill:none" points="
  302.683,1303.34 359.551,1263.42 416.418,1226.09 473.286,1183.9 530.153,1146.32 587.021,1110.76 643.888,1077.83 700.756,1046.37 757.623,1016.12 814.491,991.121 
  871.358,972.414 928.226,953.001 985.093,933.425 1041.96,914.315 1098.83,894.811 1155.7,894.811 1212.56,894.811 1269.43,894.811 1326.3,894.811 1383.17,894.811 
  1440.03,894.812 1496.9,894.811 1553.77,894.811 1610.64,894.81 1667.5,894.811 1724.37,894.811 1781.24,894.811 1838.11,894.811 1894.97,894.811 1951.84,894.811 
  2008.71,894.811 2065.58,894.811 2122.44,894.811 2179.31,894.811 2236.18,894.811 2293.05,894.812 
  "/>
<polyline clip-path="url(#clip052)" style="stroke:#00a8cb; stroke-linecap:butt; stroke-linejoin:round; stroke-width:4; stroke-opacity:1; fill:none" points="
  302.683,925.077 359.551,879.003 416.418,860.321 473.286,841.121 530.153,827.349 587.021,820.89 643.888,824.283 700.756,826.034 757.623,828.814 814.491,836.106 
  871.358,846.76 928.226,857.851 985.093,869.307 1041.96,878.288 1098.83,883.18 1155.7,885.127 1212.56,890.028 1269.43,894.811 1326.3,894.811 1383.17,894.811 
  1440.03,894.812 1496.9,894.811 1553.77,894.81 1610.64,894.81 1667.5,894.811 1724.37,894.811 1781.24,894.811 1838.11,894.811 1894.97,894.811 1951.84,894.811 
  2008.71,894.811 2065.58,894.811 2122.44,894.811 2179.31,894.811 2236.18,894.811 2293.05,894.81 
  "/>
<polyline clip-path="url(#clip052)" style="stroke:#9b7fe8; stroke-linecap:butt; stroke-linejoin:round; stroke-width:4; stroke-opacity:1; fill:none" points="
  302.683,857.477 359.551,879.266 416.418,894.81 473.286,894.811 530.153,894.81 587.021,894.81 643.888,894.811 700.756,894.811 757.623,894.811 814.491,894.813 
  871.358,894.812 928.226,894.811 985.093,894.811 1041.96,894.811 1098.83,894.811 1155.7,894.811 1212.56,894.811 1269.43,894.811 1326.3,894.811 1383.17,894.811 
  1440.03,894.811 1496.9,894.81 1553.77,894.81 1610.64,894.811 1667.5,894.811 1724.37,894.811 1781.24,894.811 1838.11,894.811 1894.97,894.811 1951.84,894.811 
  2008.71,894.811 2065.58,894.811 2122.44,894.811 2179.31,894.811 2236.18,894.811 2293.05,894.811 
  "/>
<polyline clip-path="url(#clip052)" style="stroke:#608cf6; stroke-linecap:butt; stroke-linejoin:round; stroke-width:4; stroke-opacity:1; fill:none" points="
  302.683,1033.57 359.551,973.98 416.418,948.589 473.286,926.062 530.153,904.109 587.021,894.81 643.888,894.811 700.756,894.811 757.623,894.81 814.491,894.811 
  871.358,894.811 928.226,894.811 985.093,894.811 1041.96,894.811 1098.83,894.811 1155.7,894.811 1212.56,894.811 1269.43,894.811 1326.3,894.811 1383.17,894.811 
  1440.03,894.811 1496.9,894.811 1553.77,894.811 1610.64,894.811 1667.5,894.811 1724.37,894.811 1781.24,894.811 1838.11,894.811 1894.97,894.811 1951.84,894.811 
  2008.71,894.811 2065.58,894.811 2122.44,894.811 2179.31,894.811 2236.18,894.812 2293.05,894.811 
  "/>
<polyline clip-path="url(#clip052)" style="stroke:#f05f73; stroke-linecap:butt; stroke-linejoin:round; stroke-width:4; stroke-opacity:1; fill:none" points="
  302.683,907.253 359.551,894.81 416.418,894.809 473.286,894.811 530.153,894.81 587.021,894.81 643.888,894.811 700.756,894.811 757.623,894.811 814.491,894.811 
  871.358,894.811 928.226,894.811 985.093,894.811 1041.96,894.811 1098.83,894.811 1155.7,894.811 1212.56,894.811 1269.43,894.811 1326.3,894.811 1383.17,894.811 
  1440.03,894.811 1496.9,894.811 1553.77,894.81 1610.64,894.811 1667.5,894.811 1724.37,894.811 1781.24,894.811 1838.11,894.811 1894.97,894.811 1951.84,894.811 
  2008.71,894.811 2065.58,894.811 2122.44,894.811 2179.31,894.811 2236.18,894.81 2293.05,894.811 
  "/>
<polyline clip-path="url(#clip052)" style="stroke:#dd64b5; stroke-linecap:butt; stroke-linejoin:round; stroke-width:4; stroke-opacity:1; fill:none" points="
  302.683,567.855 359.551,670.68 416.418,744.338 473.286,811.348 530.153,865.382 587.021,894.81 643.888,894.811 700.756,894.811 757.623,894.81 814.491,894.813 
  871.358,894.813 928.226,894.81 985.093,894.811 1041.96,894.811 1098.83,894.811 1155.7,894.811 1212.56,894.811 1269.43,894.811 1326.3,894.811 1383.17,894.811 
  1440.03,894.811 1496.9,894.81 1553.77,894.811 1610.64,894.81 1667.5,894.811 1724.37,894.811 1781.24,894.811 1838.11,894.811 1894.97,894.811 1951.84,894.811 
  2008.71,894.811 2065.58,894.811 2122.44,894.811 2179.31,894.811 2236.18,894.812 2293.05,894.811 
  "/>
<polyline clip-path="url(#clip052)" style="stroke:#6b9e32; stroke-linecap:butt; stroke-linejoin:round; stroke-width:4; stroke-opacity:1; fill:none" points="
  302.683,708.032 359.551,773.58 416.418,824.553 473.286,869.552 530.153,894.811 587.021,894.811 643.888,894.811 700.756,894.811 757.623,894.811 814.491,894.814 
  871.358,894.811 928.226,894.811 985.093,894.811 1041.96,894.811 1098.83,894.811 1155.7,894.811 1212.56,894.811 1269.43,894.811 1326.3,894.811 1383.17,894.811 
  1440.03,894.812 1496.9,894.81 1553.77,894.811 1610.64,894.811 1667.5,894.811 1724.37,894.811 1781.24,894.811 1838.11,894.811 1894.97,894.811 1951.84,894.811 
  2008.71,894.811 2065.58,894.811 2122.44,894.811 2179.31,894.811 2236.18,894.811 2293.05,894.811 
  "/>
<polyline clip-path="url(#clip052)" style="stroke:#009af9; stroke-linecap:butt; stroke-linejoin:round; stroke-width:4; stroke-opacity:1; fill:none" points="
  302.683,914.963 359.551,894.811 416.418,894.811 473.286,894.811 530.153,894.811 587.021,894.81 643.888,894.811 700.756,894.811 757.623,894.811 814.491,894.813 
  871.358,894.811 928.226,894.811 985.093,894.811 1041.96,894.811 1098.83,894.811 1155.7,894.811 1212.56,894.811 1269.43,894.811 1326.3,894.811 1383.17,894.811 
  1440.03,894.811 1496.9,894.81 1553.77,894.81 1610.64,894.811 1667.5,894.811 1724.37,894.811 1781.24,894.811 1838.11,894.811 1894.97,894.811 1951.84,894.811 
  2008.71,894.811 2065.58,894.811 2122.44,894.811 2179.31,894.811 2236.18,894.811 2293.05,894.811 
  "/>
<polyline clip-path="url(#clip052)" style="stroke:#e26f46; stroke-linecap:butt; stroke-linejoin:round; stroke-width:4; stroke-opacity:1; fill:none" points="
  302.683,904.75 359.551,884.342 416.418,891.961 473.286,894.811 530.153,894.811 587.021,894.811 643.888,894.811 700.756,894.811 757.623,894.811 814.491,894.814 
  871.358,894.812 928.226,894.811 985.093,894.811 1041.96,894.811 1098.83,894.811 1155.7,894.811 1212.56,894.811 1269.43,894.811 1326.3,894.811 1383.17,894.811 
  1440.03,894.811 1496.9,894.811 1553.77,894.811 1610.64,894.81 1667.5,894.811 1724.37,894.811 1781.24,894.811 1838.11,894.811 1894.97,894.811 1951.84,894.811 
  2008.71,894.811 2065.58,894.811 2122.44,894.811 2179.31,894.811 2236.18,894.811 2293.05,894.81 
  "/>
<polyline clip-path="url(#clip052)" style="stroke:#3da44d; stroke-linecap:butt; stroke-linejoin:round; stroke-width:4; stroke-opacity:1; fill:none" points="
  302.683,1170.46 359.551,1121.8 416.418,1098.33 473.286,1079.25 530.153,1062.39 587.021,1048.39 643.888,1031.5 700.756,1012.45 757.623,992.962 814.491,973.816 
  871.358,955.554 928.226,936.59 985.093,917.291 1041.96,899.173 1098.83,894.811 1155.7,894.811 1212.56,894.811 1269.43,894.811 1326.3,894.811 1383.17,894.811 
  1440.03,894.811 1496.9,894.81 1553.77,894.81 1610.64,894.81 1667.5,894.811 1724.37,894.811 1781.24,894.811 1838.11,894.811 1894.97,894.811 1951.84,894.811 
  2008.71,894.811 2065.58,894.811 2122.44,894.811 2179.31,894.811 2236.18,894.811 2293.05,894.812 
  "/>
<polyline clip-path="url(#clip052)" style="stroke:#c271d2; stroke-linecap:butt; stroke-linejoin:round; stroke-width:4; stroke-opacity:1; fill:none" points="
  302.683,1046.77 359.551,1049.33 416.418,1043.66 473.286,1027.39 530.153,1008.72 587.021,994.656 643.888,985.065 700.756,975.953 757.623,963.481 814.491,949.934 
  871.358,938.329 928.226,924.934 985.093,910.725 1041.96,899.163 1098.83,894.811 1155.7,894.811 1212.56,894.811 1269.43,894.811 1326.3,894.811 1383.17,894.811 
  1440.03,894.811 1496.9,894.811 1553.77,894.811 1610.64,894.811 1667.5,894.811 1724.37,894.811 1781.24,894.811 1838.11,894.811 1894.97,894.811 1951.84,894.811 
  2008.71,894.811 2065.58,894.811 2122.44,894.811 2179.31,894.811 2236.18,894.811 2293.05,894.81 
  "/>
<polyline clip-path="url(#clip052)" style="stroke:#ac8d18; stroke-linecap:butt; stroke-linejoin:round; stroke-width:4; stroke-opacity:1; fill:none" points="
  302.683,1142.1 359.551,1066.3 416.418,1021.79 473.286,984.427 530.153,960.024 587.021,938.278 643.888,917.653 700.756,899.713 757.623,894.811 814.491,894.813 
  871.358,894.812 928.226,894.811 985.093,894.811 1041.96,894.811 1098.83,894.811 1155.7,894.811 1212.56,894.811 1269.43,894.811 1326.3,894.811 1383.17,894.811 
  1440.03,894.812 1496.9,894.811 1553.77,894.81 1610.64,894.81 1667.5,894.811 1724.37,894.811 1781.24,894.811 1838.11,894.811 1894.97,894.811 1951.84,894.811 
  2008.71,894.811 2065.58,894.811 2122.44,894.811 2179.31,894.811 2236.18,894.81 2293.05,894.811 
  "/>
<polyline clip-path="url(#clip052)" style="stroke:#00a9ad; stroke-linecap:butt; stroke-linejoin:round; stroke-width:4; stroke-opacity:1; fill:none" points="
  302.683,1059.89 359.551,1049.42 416.418,1026.39 473.286,1009.69 530.153,999.171 587.021,990.666 643.888,983.301 700.756,975.734 757.623,965.127 814.491,952.749 
  871.358,940.072 928.226,927.802 985.093,915.794 1041.96,903.558 1098.83,894.811 1155.7,894.811 1212.56,894.811 1269.43,894.811 1326.3,894.811 1383.17,894.811 
  1440.03,894.812 1496.9,894.81 1553.77,894.811 1610.64,894.811 1667.5,894.811 1724.37,894.811 1781.24,894.811 1838.11,894.811 1894.97,894.811 1951.84,894.811 
  2008.71,894.811 2065.58,894.811 2122.44,894.811 2179.31,894.811 2236.18,894.812 2293.05,894.812 
  "/>
<polyline clip-path="url(#clip052)" style="stroke:#ed5d92; stroke-linecap:butt; stroke-linejoin:round; stroke-width:4; stroke-opacity:1; fill:none" points="
  302.683,1125.81 359.551,1033.33 416.418,946.818 473.286,894.811 530.153,894.811 587.021,894.81 643.888,894.811 700.756,894.811 757.623,894.811 814.491,894.813 
  871.358,894.811 928.226,894.811 985.093,894.811 1041.96,894.811 1098.83,894.811 1155.7,894.811 1212.56,894.811 1269.43,894.811 1326.3,894.811 1383.17,894.811 
  1440.03,894.811 1496.9,894.81 1553.77,894.81 1610.64,894.81 1667.5,894.811 1724.37,894.811 1781.24,894.811 1838.11,894.811 1894.97,894.811 1951.84,894.811 
  2008.71,894.811 2065.58,894.811 2122.44,894.811 2179.31,894.811 2236.18,894.811 2293.05,894.811 
  "/>
<polyline clip-path="url(#clip052)" style="stroke:#c68125; stroke-linecap:butt; stroke-linejoin:round; stroke-width:4; stroke-opacity:1; fill:none" points="
  302.683,923.178 359.551,894.81 416.418,894.81 473.286,894.811 530.153,894.811 587.021,894.811 643.888,894.811 700.756,894.811 757.623,894.81 814.491,894.811 
  871.358,894.811 928.226,894.811 985.093,894.811 1041.96,894.811 1098.83,894.811 1155.7,894.811 1212.56,894.811 1269.43,894.811 1326.3,894.811 1383.17,894.811 
  1440.03,894.811 1496.9,894.81 1553.77,894.81 1610.64,894.811 1667.5,894.811 1724.37,894.811 1781.24,894.811 1838.11,894.811 1894.97,894.811 1951.84,894.811 
  2008.71,894.811 2065.58,894.811 2122.44,894.811 2179.31,894.811 2236.18,894.811 2293.05,894.811 
  "/>
<polyline clip-path="url(#clip052)" style="stroke:#00a98d; stroke-linecap:butt; stroke-linejoin:round; stroke-width:4; stroke-opacity:1; fill:none" points="
  302.683,869.915 359.551,890.36 416.418,894.81 473.286,894.811 530.153,894.811 587.021,894.811 643.888,894.811 700.756,894.811 757.623,894.811 814.491,894.814 
  871.358,894.812 928.226,894.811 985.093,894.811 1041.96,894.811 1098.83,894.811 1155.7,894.811 1212.56,894.811 1269.43,894.811 1326.3,894.811 1383.17,894.811 
  1440.03,894.811 1496.9,894.811 1553.77,894.81 1610.64,894.811 1667.5,894.811 1724.37,894.811 1781.24,894.811 1838.11,894.811 1894.97,894.811 1951.84,894.811 
  2008.71,894.811 2065.58,894.811 2122.44,894.811 2179.31,894.811 2236.18,894.811 2293.05,894.811 
  "/>
<polyline clip-path="url(#clip052)" style="stroke:#8e971d; stroke-linecap:butt; stroke-linejoin:round; stroke-width:4; stroke-opacity:1; fill:none" points="
  302.683,943.019 359.551,967.413 416.418,973.529 473.286,980.112 530.153,981.781 587.021,982.67 643.888,978.767 700.756,971.017 757.623,957.609 814.491,943.291 
  871.358,927.951 928.226,912.524 985.093,897.198 1041.96,894.811 1098.83,894.811 1155.7,894.811 1212.56,894.811 1269.43,894.811 1326.3,894.811 1383.17,894.811 
  1440.03,894.811 1496.9,894.81 1553.77,894.811 1610.64,894.811 1667.5,894.811 1724.37,894.811 1781.24,894.811 1838.11,894.811 1894.97,894.811 1951.84,894.811 
  2008.71,894.811 2065.58,894.811 2122.44,894.811 2179.31,894.811 2236.18,894.811 2293.05,894.811 
  "/>
<polyline clip-path="url(#clip052)" style="stroke:#00a8cb; stroke-linecap:butt; stroke-linejoin:round; stroke-width:4; stroke-opacity:1; fill:none" points="
  302.683,790.68 359.551,776.539 416.418,795.536 473.286,815.554 530.153,833.592 587.021,847.442 643.888,848.751 700.756,850.606 757.623,849.967 814.491,851.048 
  871.358,855.641 928.226,858.799 985.093,861.272 1041.96,864.295 1098.83,869.739 1155.7,874.529 1212.56,882.513 1269.43,890.599 1326.3,894.811 1383.17,894.811 
  1440.03,894.811 1496.9,894.811 1553.77,894.81 1610.64,894.811 1667.5,894.811 1724.37,894.811 1781.24,894.811 1838.11,894.811 1894.97,894.811 1951.84,894.811 
  2008.71,894.811 2065.58,894.811 2122.44,894.811 2179.31,894.811 2236.18,894.811 2293.05,894.81 
  "/>
<polyline clip-path="url(#clip052)" style="stroke:#9b7fe8; stroke-linecap:butt; stroke-linejoin:round; stroke-width:4; stroke-opacity:1; fill:none" points="
  302.683,974.577 359.551,970.564 416.418,954.969 473.286,938.941 530.153,920.905 587.021,899.466 643.888,894.811 700.756,894.811 757.623,894.811 814.491,894.813 
  871.358,894.812 928.226,894.811 985.093,894.811 1041.96,894.811 1098.83,894.811 1155.7,894.812 1212.56,894.811 1269.43,894.811 1326.3,894.811 1383.17,894.811 
  1440.03,894.812 1496.9,894.811 1553.77,894.81 1610.64,894.811 1667.5,894.811 1724.37,894.811 1781.24,894.811 1838.11,894.811 1894.97,894.811 1951.84,894.811 
  2008.71,894.811 2065.58,894.811 2122.44,894.811 2179.31,894.811 2236.18,894.811 2293.05,894.81 
  "/>
<polyline clip-path="url(#clip052)" style="stroke:#608cf6; stroke-linecap:butt; stroke-linejoin:round; stroke-width:4; stroke-opacity:1; fill:none" points="
  302.683,1031.43 359.551,1022.59 416.418,998.584 473.286,971.676 530.153,947.663 587.021,925.845 643.888,906.429 700.756,894.811 757.623,894.811 814.491,894.81 
  871.358,894.812 928.226,894.811 985.093,894.811 1041.96,894.811 1098.83,894.811 1155.7,894.811 1212.56,894.811 1269.43,894.811 1326.3,894.811 1383.17,894.811 
  1440.03,894.812 1496.9,894.81 1553.77,894.81 1610.64,894.81 1667.5,894.811 1724.37,894.811 1781.24,894.811 1838.11,894.811 1894.97,894.811 1951.84,894.811 
  2008.71,894.811 2065.58,894.811 2122.44,894.811 2179.31,894.811 2236.18,894.811 2293.05,894.812 
  "/>
<polyline clip-path="url(#clip052)" style="stroke:#f05f73; stroke-linecap:butt; stroke-linejoin:round; stroke-width:4; stroke-opacity:1; fill:none" points="
  302.683,238.19 359.551,370.576 416.418,469.41 473.286,554.044 530.153,612.533 587.021,661.389 643.888,697.888 700.756,732.909 757.623,767.441 814.491,799.219 
  871.358,826.01 928.226,852.037 985.093,877.869 1041.96,894.811 1098.83,894.811 1155.7,894.812 1212.56,894.811 1269.43,894.811 1326.3,894.811 1383.17,894.811 
  1440.03,894.811 1496.9,894.811 1553.77,894.81 1610.64,894.81 1667.5,894.811 1724.37,894.811 1781.24,894.811 1838.11,894.811 1894.97,894.811 1951.84,894.811 
  2008.71,894.811 2065.58,894.811 2122.44,894.811 2179.31,894.811 2236.18,894.811 2293.05,894.81 
  "/>
<polyline clip-path="url(#clip052)" style="stroke:#dd64b5; stroke-linecap:butt; stroke-linejoin:round; stroke-width:4; stroke-opacity:1; fill:none" points="
  302.683,850.798 359.551,894.811 416.418,894.811 473.286,894.811 530.153,894.811 587.021,894.81 643.888,894.811 700.756,894.811 757.623,894.811 814.491,894.812 
  871.358,894.81 928.226,894.811 985.093,894.811 1041.96,894.811 1098.83,894.811 1155.7,894.811 1212.56,894.811 1269.43,894.811 1326.3,894.811 1383.17,894.811 
  1440.03,894.811 1496.9,894.811 1553.77,894.81 1610.64,894.81 1667.5,894.811 1724.37,894.811 1781.24,894.811 1838.11,894.811 1894.97,894.811 1951.84,894.811 
  2008.71,894.811 2065.58,894.811 2122.44,894.811 2179.31,894.811 2236.18,894.811 2293.05,894.811 
  "/>
<polyline clip-path="url(#clip052)" style="stroke:#6b9e32; stroke-linecap:butt; stroke-linejoin:round; stroke-width:4; stroke-opacity:1; fill:none" points="
  302.683,762.253 359.551,804.534 416.418,814.877 473.286,823.358 530.153,837.377 587.021,855.701 643.888,870.499 700.756,886.966 757.623,894.811 814.491,894.813 
  871.358,894.811 928.226,894.811 985.093,894.811 1041.96,894.811 1098.83,894.811 1155.7,894.811 1212.56,894.811 1269.43,894.811 1326.3,894.811 1383.17,894.811 
  1440.03,894.812 1496.9,894.811 1553.77,894.81 1610.64,894.81 1667.5,894.811 1724.37,894.811 1781.24,894.811 1838.11,894.811 1894.97,894.811 1951.84,894.811 
  2008.71,894.811 2065.58,894.811 2122.44,894.811 2179.31,894.811 2236.18,894.811 2293.05,894.81 
  "/>
<polyline clip-path="url(#clip052)" style="stroke:#009af9; stroke-linecap:butt; stroke-linejoin:round; stroke-width:4; stroke-opacity:1; fill:none" points="
  302.683,1059.75 359.551,1059.93 416.418,1031.21 473.286,1006.86 530.153,998.181 587.021,992.674 643.888,986.802 700.756,980.335 757.623,968.53 814.491,955.127 
  871.358,942.505 928.226,928.707 985.093,914.283 1041.96,898.381 1098.83,894.811 1155.7,894.811 1212.56,894.811 1269.43,894.811 1326.3,894.811 1383.17,894.811 
  1440.03,894.812 1496.9,894.81 1553.77,894.81 1610.64,894.81 1667.5,894.811 1724.37,894.811 1781.24,894.811 1838.11,894.811 1894.97,894.81 1951.84,894.811 
  2008.71,894.811 2065.58,894.811 2122.44,894.811 2179.31,894.811 2236.18,894.81 2293.05,894.81 
  "/>
<polyline clip-path="url(#clip052)" style="stroke:#e26f46; stroke-linecap:butt; stroke-linejoin:round; stroke-width:4; stroke-opacity:1; fill:none" points="
  302.683,970.144 359.551,907.749 416.418,894.81 473.286,894.811 530.153,894.811 587.021,894.81 643.888,894.811 700.756,894.811 757.623,894.811 814.491,894.81 
  871.358,894.812 928.226,894.811 985.093,894.811 1041.96,894.811 1098.83,894.811 1155.7,894.811 1212.56,894.811 1269.43,894.811 1326.3,894.811 1383.17,894.811 
  1440.03,894.811 1496.9,894.81 1553.77,894.811 1610.64,894.811 1667.5,894.811 1724.37,894.811 1781.24,894.81 1838.11,894.811 1894.97,894.811 1951.84,894.811 
  2008.71,894.811 2065.58,894.811 2122.44,894.811 2179.31,894.811 2236.18,894.81 2293.05,894.81 
  "/>
<polyline clip-path="url(#clip052)" style="stroke:#3da44d; stroke-linecap:butt; stroke-linejoin:round; stroke-width:4; stroke-opacity:1; fill:none" points="
  302.683,799.327 359.551,835.147 416.418,871.041 473.286,894.811 530.153,894.811 587.021,894.81 643.888,894.811 700.756,894.811 757.623,894.811 814.491,894.814 
  871.358,894.812 928.226,894.811 985.093,894.811 1041.96,894.811 1098.83,894.811 1155.7,894.811 1212.56,894.811 1269.43,894.811 1326.3,894.811 1383.17,894.811 
  1440.03,894.811 1496.9,894.811 1553.77,894.81 1610.64,894.811 1667.5,894.811 1724.37,894.811 1781.24,894.811 1838.11,894.811 1894.97,894.811 1951.84,894.811 
  2008.71,894.811 2065.58,894.811 2122.44,894.811 2179.31,894.811 2236.18,894.811 2293.05,894.81 
  "/>
<polyline clip-path="url(#clip052)" style="stroke:#c271d2; stroke-linecap:butt; stroke-linejoin:round; stroke-width:4; stroke-opacity:1; fill:none" points="
  302.683,784.321 359.551,832.956 416.418,860.865 473.286,889.398 530.153,894.811 587.021,894.81 643.888,894.811 700.756,894.811 757.623,894.811 814.491,894.813 
  871.358,894.811 928.226,894.811 985.093,894.811 1041.96,894.811 1098.83,894.811 1155.7,894.811 1212.56,894.811 1269.43,894.811 1326.3,894.811 1383.17,894.811 
  1440.03,894.812 1496.9,894.81 1553.77,894.81 1610.64,894.811 1667.5,894.811 1724.37,894.811 1781.24,894.811 1838.11,894.811 1894.97,894.811 1951.84,894.811 
  2008.71,894.811 2065.58,894.811 2122.44,894.811 2179.31,894.811 2236.18,894.811 2293.05,894.811 
  "/>
<polyline clip-path="url(#clip052)" style="stroke:#ac8d18; stroke-linecap:butt; stroke-linejoin:round; stroke-width:4; stroke-opacity:1; fill:none" points="
  302.683,1072.41 359.551,1016.65 416.418,989.873 473.286,964.794 530.153,936.074 587.021,905.534 643.888,894.811 700.756,894.811 757.623,894.811 814.491,894.812 
  871.358,894.811 928.226,894.811 985.093,894.811 1041.96,894.811 1098.83,894.811 1155.7,894.811 1212.56,894.811 1269.43,894.811 1326.3,894.811 1383.17,894.811 
  1440.03,894.811 1496.9,894.811 1553.77,894.811 1610.64,894.811 1667.5,894.811 1724.37,894.811 1781.24,894.81 1838.11,894.811 1894.97,894.81 1951.84,894.811 
  2008.71,894.811 2065.58,894.811 2122.44,894.811 2179.31,894.811 2236.18,894.811 2293.05,894.811 
  "/>
<polyline clip-path="url(#clip052)" style="stroke:#00a9ad; stroke-linecap:butt; stroke-linejoin:round; stroke-width:4; stroke-opacity:1; fill:none" points="
  302.683,699.639 359.551,745.05 416.418,804.235 473.286,847.08 530.153,871.552 587.021,894.099 643.888,894.811 700.756,894.811 757.623,894.811 814.491,894.812 
  871.358,894.811 928.226,894.811 985.093,894.811 1041.96,894.811 1098.83,894.811 1155.7,894.812 1212.56,894.811 1269.43,894.811 1326.3,894.811 1383.17,894.811 
  1440.03,894.811 1496.9,894.811 1553.77,894.81 1610.64,894.811 1667.5,894.811 1724.37,894.811 1781.24,894.811 1838.11,894.811 1894.97,894.811 1951.84,894.811 
  2008.71,894.811 2065.58,894.811 2122.44,894.811 2179.31,894.811 2236.18,894.811 2293.05,894.81 
  "/>
<polyline clip-path="url(#clip052)" style="stroke:#ed5d92; stroke-linecap:butt; stroke-linejoin:round; stroke-width:4; stroke-opacity:1; fill:none" points="
  302.683,600.887 359.551,675.483 416.418,706.991 473.286,724.399 530.153,729.971 587.021,738.648 643.888,749.501 700.756,761.374 757.623,772.573 814.491,785.209 
  871.358,800.795 928.226,816.715 985.093,832.859 1041.96,846.98 1098.83,856.344 1155.7,865.135 1212.56,872.799 1269.43,880.557 1326.3,890.903 1383.17,894.811 
  1440.03,894.811 1496.9,894.811 1553.77,894.81 1610.64,894.811 1667.5,894.811 1724.37,894.811 1781.24,894.811 1838.11,894.811 1894.97,894.811 1951.84,894.811 
  2008.71,894.811 2065.58,894.811 2122.44,894.811 2179.31,894.811 2236.18,894.811 2293.05,894.811 
  "/>
<polyline clip-path="url(#clip052)" style="stroke:#c68125; stroke-linecap:butt; stroke-linejoin:round; stroke-width:4; stroke-opacity:1; fill:none" points="
  302.683,962.271 359.551,894.931 416.418,894.811 473.286,894.811 530.153,894.811 587.021,894.81 643.888,894.811 700.756,894.811 757.623,894.811 814.491,894.812 
  871.358,894.812 928.226,894.811 985.093,894.81 1041.96,894.811 1098.83,894.811 1155.7,894.811 1212.56,894.811 1269.43,894.811 1326.3,894.811 1383.17,894.811 
  1440.03,894.811 1496.9,894.811 1553.77,894.81 1610.64,894.811 1667.5,894.811 1724.37,894.811 1781.24,894.811 1838.11,894.811 1894.97,894.811 1951.84,894.811 
  2008.71,894.811 2065.58,894.811 2122.44,894.811 2179.31,894.811 2236.18,894.811 2293.05,894.811 
  "/>
<polyline clip-path="url(#clip052)" style="stroke:#00a98d; stroke-linecap:butt; stroke-linejoin:round; stroke-width:4; stroke-opacity:1; fill:none" points="
  302.683,959.407 359.551,967.38 416.418,965.882 473.286,962.311 530.153,956.375 587.021,952.94 643.888,945.769 700.756,935.185 757.623,925.902 814.491,914.62 
  871.358,899.449 928.226,894.811 985.093,894.811 1041.96,894.811 1098.83,894.811 1155.7,894.811 1212.56,894.811 1269.43,894.811 1326.3,894.811 1383.17,894.811 
  1440.03,894.812 1496.9,894.81 1553.77,894.811 1610.64,894.81 1667.5,894.811 1724.37,894.811 1781.24,894.811 1838.11,894.811 1894.97,894.811 1951.84,894.811 
  2008.71,894.811 2065.58,894.811 2122.44,894.811 2179.31,894.811 2236.18,894.811 2293.05,894.811 
  "/>
<polyline clip-path="url(#clip052)" style="stroke:#8e971d; stroke-linecap:butt; stroke-linejoin:round; stroke-width:4; stroke-opacity:1; fill:none" points="
  302.683,870.75 359.551,894.811 416.418,894.811 473.286,894.811 530.153,894.811 587.021,894.81 643.888,894.811 700.756,894.811 757.623,894.81 814.491,894.814 
  871.358,894.812 928.226,894.811 985.093,894.811 1041.96,894.811 1098.83,894.811 1155.7,894.811 1212.56,894.811 1269.43,894.811 1326.3,894.811 1383.17,894.811 
  1440.03,894.812 1496.9,894.81 1553.77,894.81 1610.64,894.81 1667.5,894.811 1724.37,894.811 1781.24,894.811 1838.11,894.811 1894.97,894.811 1951.84,894.811 
  2008.71,894.811 2065.58,894.811 2122.44,894.811 2179.31,894.811 2236.18,894.811 2293.05,894.812 
  "/>
<polyline clip-path="url(#clip052)" style="stroke:#00a8cb; stroke-linecap:butt; stroke-linejoin:round; stroke-width:4; stroke-opacity:1; fill:none" points="
  302.683,1177.44 359.551,1141.55 416.418,1112.42 473.286,1090.2 530.153,1074.18 587.021,1059.24 643.888,1051.85 700.756,1042.44 757.623,1035.92 814.491,1032.16 
  871.358,1029.68 928.226,1025.95 985.093,1021.73 1041.96,1017.11 1098.83,1009.25 1155.7,997.542 1212.56,986.689 1269.43,975.766 1326.3,964.255 1383.17,954.062 
  1440.03,943.339 1496.9,931.75 1553.77,919.953 1610.64,908.437 1667.5,896.66 1724.37,894.811 1781.24,894.811 1838.11,894.811 1894.97,894.811 1951.84,894.811 
  2008.71,894.811 2065.58,894.811 2122.44,894.811 2179.31,894.811 2236.18,894.811 2293.05,894.811 
  "/>
<polyline clip-path="url(#clip052)" style="stroke:#9b7fe8; stroke-linecap:butt; stroke-linejoin:round; stroke-width:4; stroke-opacity:1; fill:none" points="
  302.683,1050.15 359.551,994.892 416.418,944.896 473.286,904.93 530.153,894.811 587.021,894.81 643.888,894.811 700.756,894.811 757.623,894.811 814.491,894.812 
  871.358,894.811 928.226,894.811 985.093,894.811 1041.96,894.811 1098.83,894.811 1155.7,894.811 1212.56,894.811 1269.43,894.811 1326.3,894.811 1383.17,894.811 
  1440.03,894.812 1496.9,894.811 1553.77,894.81 1610.64,894.81 1667.5,894.811 1724.37,894.811 1781.24,894.811 1838.11,894.811 1894.97,894.811 1951.84,894.811 
  2008.71,894.811 2065.58,894.811 2122.44,894.811 2179.31,894.811 2236.18,894.81 2293.05,894.81 
  "/>
<polyline clip-path="url(#clip052)" style="stroke:#608cf6; stroke-linecap:butt; stroke-linejoin:round; stroke-width:4; stroke-opacity:1; fill:none" points="
  302.683,870.106 359.551,894.81 416.418,894.81 473.286,894.811 530.153,894.811 587.021,894.81 643.888,894.811 700.756,894.811 757.623,897.527 814.491,896.896 
  871.358,894.813 928.226,894.811 985.093,894.811 1041.96,894.811 1098.83,894.811 1155.7,894.811 1212.56,894.811 1269.43,894.811 1326.3,894.811 1383.17,894.811 
  1440.03,894.811 1496.9,894.81 1553.77,894.811 1610.64,894.811 1667.5,894.811 1724.37,894.811 1781.24,894.811 1838.11,894.811 1894.97,894.811 1951.84,894.811 
  2008.71,894.811 2065.58,894.811 2122.44,894.811 2179.31,894.811 2236.18,894.811 2293.05,894.811 
  "/>
<polyline clip-path="url(#clip052)" style="stroke:#f05f73; stroke-linecap:butt; stroke-linejoin:round; stroke-width:4; stroke-opacity:1; fill:none" points="
  302.683,853.434 359.551,894.81 416.418,894.811 473.286,894.811 530.153,894.811 587.021,894.81 643.888,894.811 700.756,894.811 757.623,894.811 814.491,894.813 
  871.358,894.812 928.226,894.811 985.093,894.811 1041.96,894.811 1098.83,894.811 1155.7,894.811 1212.56,894.811 1269.43,894.811 1326.3,894.811 1383.17,894.811 
  1440.03,894.811 1496.9,894.81 1553.77,894.81 1610.64,894.811 1667.5,894.811 1724.37,894.811 1781.24,894.811 1838.11,894.811 1894.97,894.811 1951.84,894.811 
  2008.71,894.811 2065.58,894.811 2122.44,894.811 2179.31,894.811 2236.18,894.811 2293.05,894.811 
  "/>
<polyline clip-path="url(#clip052)" style="stroke:#dd64b5; stroke-linecap:butt; stroke-linejoin:round; stroke-width:4; stroke-opacity:1; fill:none" points="
  302.683,985.722 359.551,933.86 416.418,900.004 473.286,894.811 530.153,894.811 587.021,894.811 643.888,894.811 700.756,894.811 757.623,894.811 814.491,894.812 
  871.358,894.811 928.226,894.811 985.093,894.811 1041.96,894.811 1098.83,894.811 1155.7,894.811 1212.56,894.811 1269.43,894.81 1326.3,894.811 1383.17,894.811 
  1440.03,894.811 1496.9,894.811 1553.77,894.81 1610.64,894.81 1667.5,894.811 1724.37,894.811 1781.24,894.811 1838.11,894.811 1894.97,894.811 1951.84,894.811 
  2008.71,894.811 2065.58,894.811 2122.44,894.811 2179.31,894.811 2236.18,894.811 2293.05,894.81 
  "/>
<polyline clip-path="url(#clip052)" style="stroke:#6b9e32; stroke-linecap:butt; stroke-linejoin:round; stroke-width:4; stroke-opacity:1; fill:none" points="
  302.683,921.055 359.551,900.532 416.418,894.81 473.286,894.811 530.153,894.81 587.021,894.81 643.888,894.811 700.756,894.811 757.623,894.811 814.491,894.814 
  871.358,894.812 928.226,894.811 985.093,894.811 1041.96,894.811 1098.83,894.81 1155.7,894.811 1212.56,894.811 1269.43,894.811 1326.3,894.811 1383.17,894.811 
  1440.03,894.812 1496.9,894.811 1553.77,894.81 1610.64,894.81 1667.5,894.811 1724.37,894.811 1781.24,894.811 1838.11,894.811 1894.97,894.811 1951.84,894.811 
  2008.71,894.811 2065.58,894.811 2122.44,894.811 2179.31,894.811 2236.18,894.81 2293.05,894.811 
  "/>
<polyline clip-path="url(#clip052)" style="stroke:#009af9; stroke-linecap:butt; stroke-linejoin:round; stroke-width:4; stroke-opacity:1; fill:none" points="
  302.683,1382.2 359.551,1326.13 416.418,1291.66 473.286,1251.57 530.153,1208.61 587.021,1173.51 643.888,1145.56 700.756,1120.76 757.623,1099.33 814.491,1080.53 
  871.358,1064.54 928.226,1048.37 985.093,1031.91 1041.96,1013.38 1098.83,993.753 1155.7,972.213 1212.56,955.501 1269.43,938.65 1326.3,919.782 1383.17,901.796 
  1440.03,894.811 1496.9,894.81 1553.77,894.81 1610.64,894.811 1667.5,894.811 1724.37,894.811 1781.24,894.811 1838.11,894.811 1894.97,894.811 1951.84,894.811 
  2008.71,894.811 2065.58,894.811 2122.44,894.811 2179.31,894.811 2236.18,894.81 2293.05,894.81 
  "/>
<polyline clip-path="url(#clip052)" style="stroke:#e26f46; stroke-linecap:butt; stroke-linejoin:round; stroke-width:4; stroke-opacity:1; fill:none" points="
  302.683,623.053 359.551,648.551 416.418,663.619 473.286,674.585 530.153,688.279 587.021,702.724 643.888,723.505 700.756,744.726 757.623,765.226 814.491,784.278 
  871.358,804.989 928.226,826.746 985.093,848.982 1041.96,871.012 1098.83,893.304 1155.7,894.812 1212.56,894.811 1269.43,894.811 1326.3,894.811 1383.17,894.811 
  1440.03,894.812 1496.9,894.811 1553.77,894.81 1610.64,894.811 1667.5,894.811 1724.37,894.811 1781.24,894.811 1838.11,894.811 1894.97,894.811 1951.84,894.811 
  2008.71,894.811 2065.58,894.811 2122.44,894.811 2179.31,894.811 2236.18,894.811 2293.05,894.81 
  "/>
</svg>
